<svg xmlns="http://www.w3.org/2000/svg" width="24" height="24" viewBox="0 0 24 24" fill="none">
  <path d="M12 12C9.88277 12 8.16005 10.2773 8.16005 8.16C8.16005 6.04272 9.88277 4.32 12 4.32C14.1173 4.32 15.84 6.04272 15.84 8.16C15.84 10.2773 14.1173 12 12 12ZM12 5.76C10.6767 5.76 9.60005 6.83664 9.60005 8.16C9.60005 9.48336 10.6767 10.56 12 10.56C13.3234 10.56 14.4 9.48336 14.4 8.16C14.4 6.83664 13.3234 5.76 12 5.76ZM18 19.68H6.00005C5.33837 19.68 4.80005 19.1417 4.80005 18.48V18C4.80005 15.4855 6.84557 13.44 9.36005 13.44H14.64C17.1545 13.44 19.2 15.4855 19.2 18V18.48C19.2 19.1417 18.6617 19.68 18 19.68ZM6.24005 18.24H17.76V18C17.76 16.2797 16.3604 14.88 14.64 14.88H9.36005C7.63973 14.88 6.24005 16.2797 6.24005 18V18.24Z" fill="black"/>
</svg>