<svg xmlns="http://www.w3.org/2000/svg" width="24" height="24" viewBox="0 0 24 24" fill="none">
  <path d="M20.25 6.75H3.75C3.33581 6.75 3 6.41419 3 6C3 5.58581 3.33581 5.25 3.75 5.25H20.25C20.6642 5.25 21 5.58581 21 6C21 6.41419 20.6642 6.75 20.25 6.75ZM21 12C21 11.5858 20.6642 11.25 20.25 11.25H3.75C3.33581 11.25 3 11.5858 3 12C3 12.4142 3.33581 12.75 3.75 12.75H20.25C20.6642 12.75 21 12.4142 21 12ZM21 18C21 17.5858 20.6642 17.25 20.25 17.25H3.75C3.33581 17.25 3 17.5858 3 18C3 18.4142 3.33581 18.75 3.75 18.75H20.25C20.6642 18.75 21 18.4142 21 18Z" fill="black"/>
</svg>