<svg xmlns="http://www.w3.org/2000/svg" width="24" height="24" viewBox="0 0 24 24" fill="none">
  <path d="M21.0303 20.2196L17.836 16.7753C19.0296 15.3441 19.75 13.5051 19.75 11.5C19.75 6.95088 16.0491 3.25 11.5 3.25C6.95088 3.25 3.25 6.95088 3.25 11.5C3.25 16.0491 6.95088 19.75 11.5 19.75C13.5051 19.75 15.3441 19.0296 16.7753 17.836L19.9697 21.2803C20.1162 21.4267 20.3082 21.5 20.5 21.5C20.6918 21.5 20.8838 21.4267 21.0303 21.2803C21.3233 20.9872 21.3233 20.5124 21.0303 20.2196ZM4.75 11.5C4.75 7.77812 7.77775 4.75 11.5 4.75C15.2222 4.75 18.25 7.77812 18.25 11.5C18.25 15.2219 15.2222 18.25 11.5 18.25C7.77775 18.25 4.75 15.2219 4.75 11.5Z" fill="black"/>
</svg>