<svg xmlns="http://www.w3.org/2000/svg" width="24" height="24" viewBox="0 0 24 24" fill="none">
  <path d="M19.6646 17.8517L17.7446 8.73168C17.6745 8.39856 17.3805 8.16 17.0399 8.16H14.8799V7.2C14.8799 5.61192 13.588 4.32 11.9999 4.32C10.4119 4.32 9.11995 5.61192 9.11995 7.2V8.16H6.95995C6.61939 8.16 6.32539 8.39856 6.25531 8.73168L4.33531 17.8517C4.32499 17.9004 4.31995 17.9501 4.31995 18C4.31995 18.9262 5.07379 19.68 5.99995 19.68H17.9999C18.9261 19.68 19.6799 18.9262 19.6799 18C19.6799 17.9501 19.6749 17.9004 19.6646 17.8517ZM10.5599 7.2C10.5599 6.40584 11.2058 5.76 11.9999 5.76C12.7941 5.76 13.4399 6.40584 13.4399 7.2V8.16H10.5599V7.2ZM17.9999 18.24H5.99995C5.88499 18.24 5.78827 18.1584 5.76499 18.0499L7.54435 9.6H9.11995V12H10.5599V9.6H13.4399V12H14.8799V9.6H16.4555L18.2347 18.0499C18.2116 18.1584 18.1149 18.24 17.9999 18.24Z" fill="black"/>
</svg>