<svg preserveAspectRatio="none" width="100%" height="100%" overflow="visible" style="display: block;" viewBox="0 0 95.0328 95.0328" fill="none" xmlns="http://www.w3.org/2000/svg">
<g id="fi_18453022">
<path id="Vector" d="M73.1307 22.8301H21.9021C20.4254 22.8307 19.0094 23.4175 17.9653 24.4617C16.9211 25.5058 16.3343 26.9218 16.3338 28.3985V62.9221C16.3343 64.3987 16.9211 65.8148 17.9653 66.8589C19.0094 67.9031 20.4254 68.4899 21.9021 68.4904H62.6957L70.1795 74.9051C70.3806 75.0788 70.6377 75.1737 70.9034 75.1724C71.0645 75.1713 71.2237 75.1372 71.3711 75.0722C71.564 74.9821 71.7272 74.839 71.8416 74.6595C71.956 74.48 72.0168 74.2716 72.0171 74.0588V68.4904H73.1307C74.6074 68.4899 76.0234 67.903 77.0675 66.8589C78.1117 65.8147 78.6985 64.3987 78.699 62.9221V28.3985C78.6985 26.9218 78.1117 25.5058 77.0675 24.4617C76.0234 23.4175 74.6073 22.8307 73.1307 22.8301ZM36.1904 53.7455H29.2189C28.4615 53.7463 27.7346 53.4466 27.198 52.9121C26.6614 52.3776 26.3588 51.6519 26.3567 50.8945V38.6887C26.3567 38.3934 26.4741 38.1101 26.6829 37.9013C26.8918 37.6924 27.1751 37.5751 27.4704 37.5751C27.7658 37.5751 28.049 37.6924 28.2579 37.9013C28.4667 38.1101 28.5841 38.3934 28.5841 38.6887V50.8945C28.5843 50.9773 28.6009 51.0592 28.633 51.1355C28.6651 51.2118 28.712 51.281 28.7711 51.339C28.8302 51.397 28.9001 51.4428 28.977 51.4735C29.0539 51.5043 29.1361 51.5194 29.2189 51.5182H36.1904C36.4858 51.5182 36.769 51.6355 36.9779 51.8443C37.1867 52.0532 37.3041 52.3365 37.3041 52.6318C37.3041 52.9272 37.1867 53.2105 36.9779 53.4193C36.769 53.6282 36.4858 53.7455 36.1904 53.7455ZM41.9481 52.6318C41.9481 52.9272 41.8307 53.2105 41.6219 53.4193C41.413 53.6282 41.1298 53.7455 40.8344 53.7455C40.539 53.7455 40.2558 53.6282 40.0469 53.4193C39.8381 53.2105 39.7207 52.9272 39.7207 52.6318V38.6887C39.7207 38.3934 39.8381 38.1101 40.0469 37.9013C40.2558 37.6924 40.539 37.5751 40.8344 37.5751C41.1298 37.5751 41.413 37.6924 41.6219 37.9013C41.8307 38.1101 41.9481 38.3934 41.9481 38.6887V52.6318ZM55.2564 39.0228L50.9019 52.9659C50.8306 53.1921 50.689 53.3896 50.4977 53.5298C50.3065 53.67 50.0755 53.7455 49.8384 53.7455C49.6013 53.7455 49.3703 53.67 49.179 53.5298C48.9878 53.3896 48.8462 53.1921 48.7748 52.9659L44.4204 39.0228C44.3758 38.883 44.3593 38.7357 44.3717 38.5894C44.3842 38.4431 44.4254 38.3007 44.4931 38.1704C44.5607 38.0401 44.6534 37.9245 44.7659 37.8301C44.8784 37.7357 45.0084 37.6645 45.1484 37.6205C45.2885 37.5765 45.4359 37.5606 45.5821 37.5737C45.7283 37.5868 45.8705 37.6287 46.0005 37.6969C46.1305 37.7651 46.2458 37.8583 46.3397 37.9712C46.4335 38.0841 46.5042 38.2144 46.5476 38.3546L49.844 48.9011L53.1405 38.3546C53.183 38.214 53.2529 38.0833 53.3463 37.9699C53.4397 37.8566 53.5547 37.7629 53.6846 37.6944C53.8145 37.6258 53.9567 37.5837 54.103 37.5705C54.2492 37.5573 54.3967 37.5733 54.5367 37.6175C54.6768 37.6617 54.8067 37.7333 54.9188 37.8281C55.031 37.9229 55.1233 38.0391 55.1902 38.1698C55.2572 38.3005 55.2975 38.4433 55.3088 38.5897C55.3202 38.7361 55.3024 38.8833 55.2564 39.0228ZM67.5624 44.5466C67.8577 44.5466 68.141 44.6639 68.3499 44.8728C68.5587 45.0817 68.676 45.3649 68.676 45.6603C68.676 45.9556 68.5587 46.2389 68.3499 46.4478C68.141 46.6566 67.8577 46.7739 67.5624 46.7739H59.956V50.8945C59.9583 51.0611 60.0262 51.2201 60.1451 51.3369C60.264 51.4537 60.4242 51.5189 60.5908 51.5182H67.5624C67.8577 51.5182 68.141 51.6355 68.3499 51.8443C68.5587 52.0532 68.676 52.3365 68.676 52.6318C68.676 52.9272 68.5587 53.2105 68.3499 53.4193C68.141 53.6282 67.8577 53.7455 67.5624 53.7455H60.5908C59.8334 53.7463 59.1066 53.4466 58.57 52.9121C58.0334 52.3775 57.7308 51.6519 57.7287 50.8945V40.4261C57.7308 39.6686 58.0334 38.943 58.57 38.4085C59.1066 37.8739 59.8334 37.5742 60.5908 37.5751H67.5624C67.8577 37.5751 68.141 37.6924 68.3499 37.9013C68.5587 38.1101 68.676 38.3934 68.676 38.6887C68.676 38.9841 68.5587 39.2674 68.3499 39.4762C68.141 39.6851 67.8577 39.8024 67.5624 39.8024H60.5908C60.4242 39.8017 60.264 39.8668 60.1451 39.9836C60.0263 40.1004 59.9583 40.2594 59.956 40.4261V44.5466H67.5624ZM47.5164 2.96977C38.7059 2.96963 30.0932 5.58212 22.7674 10.4769C15.4417 15.3716 9.7319 22.3288 6.36016 30.4686C2.98843 38.6085 2.10615 47.5653 3.82491 56.2066C5.54367 64.8478 9.78627 72.7853 16.0162 79.0154C22.2461 85.2454 30.1836 89.4881 38.8248 91.207C47.466 92.9259 56.4229 92.0438 64.5627 88.6722C72.7026 85.3006 79.6599 79.5909 84.5548 72.2652C89.4497 64.9396 92.0623 56.3269 92.0623 47.5164C92.049 35.7061 87.3515 24.3833 79.0005 16.0321C70.6494 7.68089 59.3267 2.98325 47.5164 2.96977ZM47.5164 89.5257C39.2078 89.5256 31.0858 87.0617 24.1775 82.4455C17.2692 77.8294 11.8848 71.2684 8.70535 63.5922C5.52587 55.9159 4.69405 47.4693 6.31507 39.3203C7.9361 31.1714 11.9372 23.6861 17.8123 17.8111C23.6874 11.936 31.1728 7.93509 39.3218 6.3142C47.4708 4.69332 55.9174 5.52529 63.5936 8.7049C71.2697 11.8845 77.8306 17.2689 82.4466 24.1773C87.0627 31.0857 89.5265 39.2078 89.5265 47.5164C89.5136 58.6541 85.0834 69.332 77.2077 77.2075C69.3321 85.083 58.6541 89.513 47.5164 89.5257Z" fill="var(--fill-0, #384968)"/>
</g>
</svg>
