<svg preserveAspectRatio="none" width="100%" height="100%" overflow="visible" style="display: block;" viewBox="0 0 90.3123 100" fill="none" xmlns="http://www.w3.org/2000/svg">
<g id="fi_10149376">
<path id="Vector" d="M16.5018 39.1906L38.6198 51.4281L42.7177 46.8922L20.5983 34.6547L16.5018 39.1906Z" fill="var(--fill-0, #384968)"/>
<path id="Vector_2" d="M68.4683 45.567L51.9253 54.718C51.731 54.8349 51.5128 54.8941 51.2918 54.8896C50.9182 54.8879 50.5599 54.7258 50.2921 54.4375L46.5048 50.2283V78.2427L68.4683 66.0828V45.567Z" fill="var(--fill-0, #384968)"/>
<path id="Vector_3" d="M69.5941 34.6547L47.4761 46.8922L51.574 51.4281L73.692 39.1906L69.5941 34.6547Z" fill="var(--fill-0, #384968)"/>
<path id="Vector_4" d="M66.7224 32.7531L45.0969 20.7797L23.4713 32.7531L45.0969 44.725L66.7224 32.7531Z" fill="var(--fill-0, #384968)"/>
<path id="Vector_5" d="M43.6889 50.2283L39.9016 54.4375C39.6906 54.6685 39.4192 54.8199 39.126 54.8703C38.8328 54.9207 38.5328 54.8674 38.2685 54.7181L21.7254 45.567V66.0828L43.6889 78.2427V50.2283Z" fill="var(--fill-0, #384968)"/>
<path id="Vector_6" d="M74.8867 21.3288L77.0639 21.6252C77.4311 21.6684 77.799 21.5501 78.0882 21.2958C78.3774 21.0414 78.5647 20.6714 78.6098 20.2656C78.6549 19.8597 78.5541 19.4504 78.3292 19.1261C78.1043 18.8017 77.7733 18.5882 77.4075 18.5316L72.0179 17.7963C71.8341 17.769 71.6473 17.7826 71.4683 17.8363C71.2894 17.89 71.1219 17.9828 70.9758 18.1092C70.8297 18.2355 70.7078 18.3929 70.6174 18.5721C70.5269 18.7514 70.4697 18.9488 70.4491 19.1528L69.785 25.1206C69.7469 25.5268 69.8541 25.9333 70.0838 26.2528C70.3135 26.5723 70.6473 26.7792 71.0133 26.829C71.3793 26.8789 71.7484 26.7677 72.0412 26.5194C72.3339 26.2711 72.527 25.9054 72.5789 25.5012L72.8091 23.434C93.2286 49.3308 76.1832 90.5653 45.0964 90.4334C37.9441 90.44 30.9477 88.1198 24.9762 83.7609C24.6644 83.5336 24.2839 83.4527 23.9182 83.5361C23.5526 83.6195 23.2319 83.8603 23.0266 84.2055C22.8213 84.5507 22.7482 84.9721 22.8235 85.3769C22.8988 85.7818 23.1163 86.1369 23.428 86.3643C61.7952 113.532 104.17 59.821 74.8867 21.3288Z" fill="var(--fill-0, #384968)"/>
<path id="Vector_7" d="M18.9334 72.8239C18.7488 72.8036 18.5624 72.8244 18.3851 72.8852C18.2079 72.9459 18.0434 73.0453 17.9014 73.1776C17.7594 73.3098 17.6428 73.4722 17.5584 73.6551C17.474 73.8381 17.4235 74.0379 17.41 74.2428L17.2572 76.2043C-9.61022 40.3738 29.7487 -9.10498 65.2178 16.0415C65.5296 16.2611 65.907 16.3362 66.2683 16.2504C66.6297 16.1646 66.9461 15.925 67.1493 15.5831C67.3525 15.2413 67.4261 14.8247 67.3544 14.4233C67.2826 14.0219 67.0711 13.6678 66.7656 13.4375C60.3349 8.74208 52.7998 6.24281 45.0969 6.25034C11.8553 6.10725 -6.57952 49.9739 14.9114 77.9644L12.9154 77.6545C12.5484 77.6036 12.178 77.7146 11.8844 77.9636C11.5907 78.2126 11.3973 78.5796 11.346 78.9852C11.2947 79.3908 11.3897 79.8025 11.6103 80.1312C11.8309 80.46 12.1595 80.6794 12.525 80.742L18.1731 81.6189C18.3623 81.6469 18.5545 81.6322 18.7384 81.5759C18.9223 81.5195 19.094 81.4226 19.2432 81.2909C19.3924 81.1592 19.5161 80.9956 19.6067 80.8097C19.6974 80.6238 19.7532 80.4195 19.7708 80.2092L20.2149 74.5107C20.2308 74.3068 20.2103 74.1014 20.1545 73.9062C20.0987 73.7111 20.0088 73.53 19.8898 73.3733C19.7708 73.2167 19.625 73.0876 19.461 72.9933C19.2969 72.899 19.1176 72.8414 18.9334 72.8239Z" fill="var(--fill-0, #384968)"/>
</g>
</svg>
