<svg preserveAspectRatio="none" width="100%" height="100%" overflow="visible" style="display: block;" viewBox="0 0 95.0328 95.0328" fill="none" xmlns="http://www.w3.org/2000/svg">
<g id="fi_17189156">
<path id="Vector" d="M39.4888 6.8653C39.1086 6.94721 38.7758 7.17528 38.5622 7.50031C38.3486 7.82534 38.2714 8.2213 38.3471 8.60279C38.4227 8.98428 38.6454 9.32074 38.9669 9.53959C39.2884 9.75845 39.683 9.84217 40.0657 9.77271C66.9467 3.89664 92.0019 30.1644 84.9007 56.7349C84.6416 58.3901 82.8869 61.1316 85.5251 61.4565C87.3917 61.295 87.2317 58.9015 87.7782 57.4409C95.4283 28.8265 68.4404 0.532762 39.4888 6.8653Z" fill="var(--fill-0, #384968)"/>
<path id="Vector_2" d="M55.1067 85.3315C31.6608 90.3272 8.69372 71.5689 8.96294 47.5716C8.96946 43.5168 9.60954 39.4879 10.86 35.6307C10.9206 35.4458 10.9442 35.2508 10.9295 35.0567C10.9147 34.8627 10.8619 34.6735 10.774 34.4998C10.6861 34.3262 10.5649 34.1716 10.4173 34.0448C10.2696 33.9181 10.0985 33.8216 9.91355 33.761C7.70177 33.2646 7.73144 36.1621 7.19857 37.7025C0.570746 63.3084 21.0058 89.4132 47.4886 89.0607C50.2458 89.0609 52.9962 88.7846 55.6983 88.2359C56.0831 88.1571 56.4209 87.9288 56.6374 87.6011C56.854 87.2734 56.9316 86.8731 56.8532 86.4882C56.7748 86.1033 56.5469 85.7653 56.2194 85.5484C55.8919 85.3315 55.4917 85.2535 55.1067 85.3315Z" fill="var(--fill-0, #384968)"/>
<path id="Vector_3" d="M11.6301 30.8129C12.2821 30.8425 12.9192 30.8573 13.5266 30.857C26.891 31.1849 33.2689 22.8197 31.4559 12.3502C32.5901 12.3046 34.4946 12.4909 34.464 10.7648C34.3889 8.49421 30.8437 9.5557 29.7965 9.5499C19.2452 6.07764 16.1975 9.34896 13.3341 21.0333C12.5339 23.9524 11.6301 27.2715 10.6374 28.3087C10.4438 28.5146 10.3128 28.7713 10.2598 29.0489C10.2068 29.3265 10.234 29.6135 10.3381 29.8762C10.4423 30.1389 10.6191 30.3665 10.8479 30.5324C11.0767 30.6983 11.348 30.7956 11.6301 30.8129Z" fill="var(--fill-0, #384968)"/>
<path id="Vector_4" d="M83.347 64.3302C75.3307 63.9746 69.5815 65.8712 66.2772 70.0054C62.721 74.4506 63.0915 80.1702 63.5212 82.7928C63.0767 82.8225 62.558 82.8374 61.9506 82.8522C61.5659 82.8701 61.2033 83.037 60.9395 83.3176C60.6756 83.5981 60.5313 83.9703 60.5371 84.3554C60.5429 84.7405 60.6982 85.1082 60.9703 85.3807C61.2424 85.6533 61.6099 85.8093 61.9949 85.8157C63.1506 85.811 64.3045 85.7218 65.4472 85.5487C81.3284 91.8771 79.2461 76.1348 84.3398 66.8344C84.5334 66.6285 84.6644 66.3718 84.7174 66.0942C84.7704 65.8166 84.7432 65.5296 84.639 65.2669C84.5349 65.0042 84.3581 64.7766 84.1293 64.6107C83.9004 64.4448 83.6291 64.3475 83.347 64.3302Z" fill="var(--fill-0, #384968)"/>
<path id="Vector_5" d="M67.6849 48.4606C69.9743 48.6458 71.7783 49.5048 74.0712 49.3201C74.1156 48.7421 74.1601 48.1642 74.1601 47.5716C74.1558 43.3915 73.1677 39.2711 71.2757 35.5437C69.3837 31.8163 66.641 28.5866 63.2693 26.1157C62.5432 26.753 61.1207 28.5014 62.1725 32.028C63.5804 36.6267 61.7044 39.6297 61.3429 42.9634C63.1938 44.6396 65.2274 48.2556 67.6849 48.4606Z" fill="var(--fill-0, #384968)"/>
<path id="Vector_6" d="M59.224 66.8344C56.3939 68.3902 54.9418 67.9012 53.6823 67.2788C53.0961 67.034 53.3851 66.9673 52.4672 67.6344C50.6787 69.2485 47.3986 70.8304 47.133 72.7466C47.0144 73.3541 46.9255 73.8282 46.8663 74.2135C53.2587 74.3944 59.4989 72.2458 64.4251 68.1679C63.8671 67.3529 63.0321 66.7683 62.0754 66.523C61.1186 66.2777 60.1053 66.3884 59.224 66.8344Z" fill="var(--fill-0, #384968)"/>
<path id="Vector_7" d="M33.6638 56.0028C35.2105 55.397 36.8636 55.1098 38.5241 55.1582C39.7729 52.6195 40.6702 49.9226 41.1911 47.1418C38.4627 47.5051 34.828 48.6579 31.7523 43.6152C28.5073 37.9253 24.5065 36.8733 23.1734 36.6805C18.0352 47.2822 21.699 61.4789 30.8189 68.3606C29.4709 62.6631 25.4344 58.7578 33.6638 56.0028Z" fill="var(--fill-0, #384968)"/>
<path id="Vector_8" d="M47.4886 20.9C42.8684 20.9046 38.3288 22.1103 34.3153 24.399C30.3017 26.6876 26.9522 29.9804 24.5954 33.9543C26.9366 34.5617 31.0559 36.4139 34.3306 42.1483C35.9753 45.0229 37.8869 44.697 39.9168 44.3414C41.1614 44.1339 42.584 43.882 43.5323 44.9637C44.5251 46.1047 44.2287 47.942 43.4286 50.5499C41.443 56.9807 40.8652 58.1217 37.9164 58.1513C35.6129 58.2634 33.397 59.0691 31.5596 60.4629C31.3656 61.0907 32.5063 63.79 32.9229 65.0563C33.9305 67.9901 34.1379 69.546 33.9305 70.4943C36.9843 72.3188 40.377 73.5035 43.9027 73.9765C43.9916 73.443 44.0954 72.8652 44.2435 72.1389C44.9652 68.6866 48.0864 67.5435 50.5706 65.3527C52.6006 63.6634 53.8749 64.0635 55.001 64.6265C55.6085 64.9377 56.0975 65.1748 57.8015 64.2413C59.2508 63.4537 60.9344 63.2119 62.5467 63.5599C64.159 63.9079 65.593 64.8226 66.5883 66.1379C70.2904 62.3441 72.7726 57.5294 73.7156 52.3132C71.389 52.4183 69.5957 51.6003 67.4477 51.4241C63.6642 51.0837 61.5964 47.4134 59.3277 45.1267C57.8459 43.7783 58.3942 41.8372 58.9129 39.9554C59.7547 37.6886 59.8991 35.2219 59.3277 32.8724C58.805 31.4682 58.6613 29.9511 58.9111 28.4736C59.1608 26.9962 59.7951 25.6106 60.7502 24.4561C56.7191 22.1256 52.1449 20.899 47.4886 20.9Z" fill="var(--fill-0, #384968)"/>
</g>
</svg>
