<svg preserveAspectRatio="none" width="100%" height="100%" overflow="visible" style="display: block;" viewBox="0 0 95.0328 95.0328" fill="none" xmlns="http://www.w3.org/2000/svg">
<g id="fi_12969497">
<path id="Vector" d="M70.3859 34.1282C70.181 32.3549 71.7398 30.0187 70.7555 28.1517C69.9053 26.2209 67.13 25.9539 65.8526 24.728C65.5071 24.1093 65.2882 23.4279 65.2085 22.7237C64.7592 19.4496 63.1472 18.0924 59.8043 18.3935C59.1119 18.5709 58.3793 18.4996 57.7341 18.1922C57.0888 17.8848 56.5719 17.3607 56.2735 16.7112C54.4571 13.9604 52.4263 13.3957 49.5451 15.1368C48.9243 15.519 48.2358 15.7781 47.5171 15.9002C45.7522 15.7032 43.8105 13.6633 41.7791 14.1943C39.699 14.5961 38.8294 17.2314 37.3414 18.2145C36.6565 18.4143 35.9386 18.4751 35.2299 18.3933C31.92 18.1059 30.2728 19.4131 29.826 22.7239C29.7461 23.4281 29.5271 24.1093 29.1815 24.7279C27.909 25.9595 25.1276 26.2182 24.2787 28.1518C23.2966 30.0184 24.8472 32.3535 24.6484 34.1282C24.3836 34.7637 23.9942 35.3397 23.5032 35.8223C21.1977 38.2542 21.1546 40.4219 23.5033 42.8606C23.9924 43.3493 24.3813 43.9288 24.6484 44.5665C24.8483 46.341 23.295 48.6749 24.2788 50.5432C25.1287 52.4685 27.9052 52.7342 29.1816 53.9668C29.5289 54.5848 29.748 55.2664 29.8257 55.971C30.2535 59.2159 31.9205 60.611 35.2299 60.2893C35.9387 60.2137 36.6553 60.2746 37.3412 60.4685C38.8254 61.4626 39.6948 64.0901 41.7791 64.4884C43.776 65.0187 45.7641 62.9973 47.517 62.7945C48.329 62.9497 49.1054 63.253 49.8075 63.6893C52.5384 65.3316 54.6022 64.5377 56.2732 61.9832C56.6426 61.3935 57.1251 60.8827 57.6929 60.4803C59.3706 59.9141 62.021 60.8653 63.5978 59.5019C65.2926 58.2571 64.9218 55.4758 65.8525 53.9668C66.3767 53.497 66.989 53.1361 67.6539 52.9051C70.747 51.7378 71.7193 49.8638 70.6719 46.6779C70.3479 46.0412 70.2565 45.3113 70.4133 44.6143C70.5702 43.9174 70.9655 43.2971 71.531 42.8605C73.8448 40.4342 73.8671 38.2726 71.5308 35.8222C71.0399 35.3396 70.6506 34.7636 70.3859 34.1282ZM33.8938 30.1916C40.0266 20.4446 56.0802 20.4951 61.3914 30.9192C61.3864 31.1743 61.3002 31.4211 61.1453 31.6239C60.9904 31.8266 60.7748 31.9746 60.53 32.0465C60.2852 32.1183 60.0238 32.1102 59.7839 32.0233C59.544 31.9365 59.3381 31.7753 59.196 31.5634C53.9743 23.303 41.0645 23.3127 35.8383 31.5637C35.7502 31.6962 35.6364 31.8096 35.5037 31.8973C35.371 31.9851 35.2221 32.0453 35.0657 32.0745C34.9094 32.1037 34.7487 32.1013 34.5933 32.0673C34.4379 32.0334 34.2909 31.9687 34.1609 31.877C34.0309 31.7852 33.9206 31.6684 33.8366 31.5334C33.7525 31.3983 33.6964 31.2478 33.6715 31.0907C33.6466 30.9336 33.6534 30.7731 33.6916 30.6186C33.7298 30.4642 33.7985 30.319 33.8938 30.1916ZM59.4466 38.2679C59.363 45.0318 48.1852 50.1853 47.5171 50.1973C46.8491 50.1973 35.6713 45.0318 35.5877 38.2679C35.3969 32.2673 42.8766 28.6647 47.5171 32.4104C52.1577 28.6646 59.6374 32.2673 59.4466 38.2679ZM63.8247 41.1667C61.2998 60.5216 33.7306 60.5151 31.2096 41.1664C31.1753 41.0051 31.1746 40.8384 31.2078 40.6769C31.241 40.5153 31.3073 40.3624 31.4025 40.2277C31.4976 40.093 31.6197 39.9795 31.7609 39.8943C31.902 39.8091 32.0594 39.754 32.2229 39.7325C32.3864 39.7111 32.5526 39.7237 32.711 39.7696C32.8694 39.8155 33.0166 39.8938 33.1432 39.9993C33.2699 40.1049 33.3734 40.2356 33.4471 40.3831C33.5209 40.5306 33.5633 40.6918 33.5717 40.8565C33.9417 44.2968 35.5705 47.479 38.1447 49.7911C40.7189 52.1033 44.057 53.3823 47.5172 53.3823C50.9774 53.3823 54.3155 52.1033 56.8897 49.7911C59.4639 47.4789 61.0926 44.2968 61.4627 40.8564C61.4713 40.6919 61.5138 40.5309 61.5877 40.3835C61.6615 40.2362 61.765 40.1057 61.8916 40.0003C62.0183 39.8949 62.1654 39.8169 62.3237 39.7711C62.482 39.7253 62.6481 39.7127 62.8114 39.7341C62.9748 39.7556 63.132 39.8106 63.2731 39.8958C63.4142 39.9809 63.5362 40.0943 63.6313 40.2288C63.7265 40.3634 63.7928 40.5161 63.8261 40.6775C63.8593 40.8389 63.8589 41.0055 63.8247 41.1667Z" fill="var(--fill-0, #384968)"/>
<path id="Vector_2" d="M36.2677 62.6754C34.7223 62.8052 33.166 62.6762 31.663 62.2937L27.6309 76.3703C27.5683 76.596 27.5734 76.8351 27.6455 77.0579C27.7176 77.2807 27.8536 77.4774 28.0366 77.6236C28.2197 77.7697 28.4416 77.8589 28.6748 77.88C28.9081 77.901 29.1424 77.8531 29.3486 77.7421L35.1344 74.5452L38.3434 80.319C38.4555 80.5246 38.627 80.6917 38.8356 80.7981C39.0443 80.9046 39.2802 80.9455 39.5125 80.9155C39.7468 80.8919 39.9687 80.7986 40.1495 80.6476C40.3303 80.4966 40.4616 80.2949 40.5265 80.0685L44.3797 66.636C40.5969 67.9185 38.0572 65.2489 36.2677 62.6754Z" fill="var(--fill-0, #384968)"/>
<path id="Vector_3" d="M63.3714 62.2937C61.8699 62.6855 60.312 62.8147 58.7666 62.6753C57.1141 65.112 54.3379 67.9724 50.6546 66.6478L54.5078 80.0683C54.5767 80.2909 54.7089 80.4885 54.8882 80.6372C55.0675 80.7859 55.2862 80.8793 55.5176 80.9058C55.7491 80.9324 55.9832 80.891 56.1916 80.7868C56.3999 80.6826 56.5734 80.52 56.6909 80.3189L59.9 74.5451L65.6856 77.7421C65.8919 77.8527 66.1261 77.9003 66.3592 77.8791C66.5923 77.8579 66.814 77.7687 66.9969 77.6226C67.1798 77.4766 67.3158 77.28 67.3881 77.0574C67.4603 76.8348 67.4657 76.5959 67.4034 76.3702L63.3714 62.2937Z" fill="var(--fill-0, #384968)"/>
<path id="Vector_4" d="M54.2335 33.7704C53.3769 33.3564 52.4208 33.1928 51.4753 33.2983C50.5298 33.4038 49.6333 33.7742 48.8891 34.3668C48.2926 34.9037 47.5291 35.4762 46.7776 34.8679C45.7684 33.8774 44.4214 33.3062 43.0078 33.2694C41.6925 33.2603 40.4266 33.7698 39.4843 34.6875C38.542 35.6052 37.9993 36.8572 37.9737 38.1723C37.9737 42.2641 44.4513 46.2128 47.5171 47.692C50.5831 46.2128 57.0607 42.2641 57.0607 38.2678C57.0734 37.3254 56.8132 36.3994 56.3116 35.6014C55.81 34.8034 55.0883 34.1675 54.2335 33.7704Z" fill="var(--fill-0, #384968)"/>
<path id="Vector_5" d="M47.5164 2.96977C38.7059 2.96977 30.0933 5.58239 22.7676 10.4772C15.442 15.3721 9.73231 22.3293 6.36068 30.4691C2.98906 38.609 2.10688 47.5658 3.82573 56.207C5.54457 64.8482 9.78722 72.7856 16.0172 79.0156C22.2471 85.2456 30.1846 89.4882 38.8258 91.207C47.467 92.9259 56.4238 92.0437 64.5636 88.6721C72.7035 85.3005 79.6607 79.5908 84.5556 72.2652C89.4504 64.9395 92.063 56.3269 92.063 47.5164C92.0497 35.706 87.3521 24.3831 79.0009 16.0319C70.6497 7.68067 59.3268 2.9831 47.5164 2.96977ZM47.5164 89.5257C39.2077 89.5257 31.0857 87.0619 24.1773 82.4459C17.2689 77.8298 11.8844 71.2689 8.70483 63.5927C5.52524 55.9165 4.69332 47.4698 6.31426 39.3208C7.9352 31.1718 11.9362 23.6864 17.8113 17.8113C23.6864 11.9362 31.1718 7.9352 39.3208 6.31426C47.4698 4.69332 55.9165 5.52524 63.5927 8.70483C71.2689 11.8844 77.8298 17.2689 82.4459 24.1773C87.0619 31.0857 89.5257 39.2077 89.5257 47.5164C89.5132 58.6541 85.0832 69.332 77.2076 77.2076C69.332 85.0831 58.6541 89.5132 47.5164 89.5257Z" fill="var(--fill-0, #384968)"/>
</g>
</svg>
